<?xml version="1.0" standalone="no"?>
<!DOCTYPE svg PUBLIC "-//W3C//DTD SVG 20010904//EN" "http://www.w3.org/TR/2001/REC-SVG-20010904/DTD/svg10.dtd">
<svg version="1.0" xmlns="http://www.w3.org/2000/svg" width="512.000000pt" height="512.000000pt" viewBox="0 0 512.000000 512.000000" preserveAspectRatio="xMidYMid meet">

    <g transform="translate(0.000000,512.000000) scale(0.100000,-0.100000)" fill="#FFFFFF" stroke="none">
        <path d="M1028 5075 c-522 -85 -935 -503 -1013 -1024 -111 -735 461 -1401
1205 -1401 675 0 1220 545 1220 1220 0 578 -400 1069 -975 1195 -101 23 -330
28 -437 10z m457 -169 c205 -52 418 -185 551 -345 160 -191 241 -399 251 -646
13 -315 -90 -579 -312 -800 -208 -209 -463 -315 -755 -315 -487 0 -909 328
-1037 807 -23 87 -26 117 -26 263 0 146 3 176 26 262 112 419 456 730 883 798
103 16 306 4 419 -24z" />
        <path d="M1056 4734 c-349 -63 -639 -357 -701 -709 -85 -489 241 -947 729
-1026 94 -15 266 -7 356 16 83 22 242 96 275 129 48 48 21 126 -44 126 -16 0
-56 -15 -88 -34 -32 -19 -94 -47 -138 -63 -73 -25 -92 -27 -225 -27 -133 0
-152 2 -225 27 -98 35 -150 64 -238 135 -176 140 -278 373 -264 602 32 521
576 842 1042 615 190 -93 311 -229 381 -430 26 -73 28 -92 28 -225 0 -133 -2
-152 -27 -225 -16 -44 -46 -111 -68 -148 -47 -79 -49 -119 -7 -150 52 -39 94
-10 156 112 71 137 102 263 102 412 0 550 -498 962 -1044 863z" />
        <path d="M1217 4362 c-10 -2 -20 -16 -23 -31 -5 -25 -14 -30 -65 -45 -137 -38
-208 -184 -150 -311 23 -51 69 -90 149 -127 l62 -28 0 -121 c0 -120 0 -120
-22 -113 -34 10 -79 34 -114 60 -17 13 -40 24 -52 24 -29 0 -62 -46 -62 -86 0
-62 94 -128 199 -141 44 -5 50 -9 55 -33 10 -51 72 -50 83 1 4 23 13 31 42 39
113 30 184 124 183 243 0 115 -51 188 -168 239 l-54 23 0 108 c0 64 4 107 10
107 5 0 33 -9 62 -20 29 -11 63 -20 75 -20 47 0 72 90 34 124 -23 21 -103 46
-146 46 -28 0 -33 4 -38 29 -6 29 -27 40 -60 33z m-17 -287 c0 -47 -4 -85 -9
-85 -4 0 -23 10 -42 23 -28 19 -35 30 -37 64 -3 34 1 44 24 62 15 11 35 21 45
21 17 0 19 -9 19 -85z m147 -354 c23 -55 -3 -114 -59 -134 -16 -6 -18 3 -18
99 l0 105 31 -18 c18 -10 38 -33 46 -52z" />
        <path d="M3707 5074 c-111 -17 -280 -73 -377 -125 -578 -312 -812 -1011 -535
-1597 173 -365 513 -623 905 -687 592 -96 1165 250 1355 817 193 579 -65 1203
-615 1481 -216 108 -486 150 -733 111z m455 -168 c376 -96 674 -393 775 -774
23 -86 26 -116 26 -262 0 -147 -3 -176 -26 -265 -56 -209 -187 -418 -346 -551
-191 -160 -399 -241 -646 -251 -315 -13 -579 90 -800 312 -222 221 -325 485
-312 800 8 189 51 338 145 496 161 274 448 468 768 519 103 16 307 4 416 -24z" />
        <path d="M3720 4730 c-361 -76 -632 -362 -691 -725 -15 -93 -6 -275 16 -360
23 -83 86 -215 139 -288 50 -71 149 -168 219 -216 66 -45 198 -106 277 -127
94 -26 338 -26 435 0 406 108 684 484 662 896 -13 234 -100 426 -266 589 -208
204 -508 292 -791 231z m385 -160 c243 -76 420 -254 496 -500 34 -108 34 -293
1 -400 -78 -249 -251 -424 -497 -503 -59 -19 -91 -22 -210 -21 -123 0 -149 3
-218 26 -112 38 -211 100 -297 187 -87 89 -139 173 -177 286 -25 72 -27 94
-27 225 0 133 2 152 28 225 70 203 197 344 391 436 44 20 112 45 150 53 97 22
266 15 360 -14z" />
        <path d="M3825 4353 c-113 -41 -174 -125 -183 -253 l-5 -70 -38 0 c-46 0 -79
-27 -79 -65 0 -38 33 -65 80 -65 l40 0 0 -45 0 -45 -40 0 c-47 0 -80 -27 -80
-65 0 -38 33 -65 79 -65 l38 0 6 -59 c10 -114 79 -200 189 -237 71 -23 215
-16 283 15 94 42 149 115 161 214 6 51 4 58 -19 81 -20 20 -36 26 -69 26 -58
0 -88 -22 -88 -63 0 -75 -63 -137 -138 -137 -78 0 -142 58 -142 128 l0 32 70
0 c78 0 110 19 110 65 0 46 -32 65 -110 65 l-70 0 0 44 0 44 76 4 c82 4 104
18 104 65 0 44 -33 63 -110 63 l-70 0 0 48 c0 52 26 104 61 123 34 18 119 15
157 -5 35 -18 62 -66 62 -110 0 -14 9 -31 22 -40 25 -18 100 -21 128 -6 44 24
32 146 -21 219 -20 27 -52 51 -95 72 -56 28 -77 33 -162 36 -75 3 -108 0 -147
-14z" />
        <path d="M985 2441 c-250 -52 -465 -170 -639 -351 -168 -175 -271 -369 -323
-610 -24 -112 -24 -371 1 -478 83 -371 311 -672 635 -841 459 -239 1008 -163
1398 194 133 120 268 335 327 516 83 260 73 568 -30 825 -141 356 -455 631
-834 731 -132 35 -400 42 -535 14z m432 -146 c228 -43 419 -148 581 -320 318
-337 384 -832 164 -1237 -301 -557 -998 -732 -1532 -387 -36 23 -112 90 -170
148 -119 120 -183 217 -237 363 -46 122 -62 200 -70 334 -28 516 335 985 847
1094 108 24 308 26 417 5z" />
        <path d="M1032 2104 c-251 -55 -483 -237 -601 -471 -99 -199 -117 -454 -46
-664 196 -576 878 -790 1367 -427 170 125 289 317 333 537 23 112 16 294 -15
401 -90 314 -351 558 -670 626 -82 17 -285 16 -368 -2z m372 -154 c129 -33
228 -91 331 -195 104 -103 161 -203 195 -339 83 -329 -86 -683 -394 -831 -110
-52 -185 -68 -316 -68 -220 0 -383 71 -537 236 -156 167 -224 405 -179 627 59
289 257 496 551 575 78 21 257 19 349 -5z" />
        <path d="M1340 1731 c-82 -25 -165 -93 -203 -166 -11 -22 -28 -80 -37 -130
l-16 -90 -59 -5 c-57 -5 -60 -6 -69 -37 -14 -51 12 -83 69 -83 43 0 44 -1 40
-27 -3 -16 -12 -80 -20 -143 -23 -171 -18 -160 -69 -160 -24 0 -48 -6 -55 -13
-28 -35 -21 -107 13 -129 6 -4 136 -8 288 -8 265 0 279 1 298 20 24 24 26 77
4 108 -15 21 -21 22 -175 22 l-160 0 6 43 c4 23 14 96 23 162 l17 120 95 3
c52 1 100 8 107 14 16 13 17 80 1 96 -7 7 -44 12 -96 12 l-85 0 7 65 c8 80 20
112 54 148 30 31 77 47 144 47 52 0 78 23 78 70 0 14 -7 36 -16 48 -13 19 -24
22 -87 21 -40 0 -83 -4 -97 -8z" />
        <path d="M3685 2446 c-222 -43 -427 -142 -590 -286 -530 -466 -557 -1280 -60
-1775 381 -380 945 -470 1419 -227 329 169 558 470 642 844 25 107 25 366 1
478 -52 241 -155 435 -323 610 -166 172 -346 275 -594 342 -98 26 -389 34
-495 14z m415 -152 c522 -99 899 -581 867 -1109 -8 -124 -25 -205 -70 -323
-114 -305 -384 -555 -698 -645 -611 -178 -1245 216 -1354 842 -99 565 271
1111 835 1231 110 24 308 26 420 4z" />
        <path d="M3715 2105 c-95 -20 -214 -71 -295 -124 -77 -51 -187 -154 -240 -227
-45 -63 -106 -190 -130 -274 -30 -103 -38 -287 -17 -395 52 -278 230 -510 482
-632 139 -67 225 -86 385 -86 163 0 248 20 390 91 74 37 97 53 104 75 14 40
-3 78 -41 94 -29 11 -36 10 -88 -17 -327 -172 -694 -108 -922 162 -109 129
-162 264 -170 438 -7 141 14 240 79 370 58 117 187 247 305 308 201 104 440
111 641 21 408 -184 556 -689 312 -1064 -45 -70 -49 -91 -19 -129 15 -19 30
-26 54 -26 45 0 82 44 145 175 70 145 85 211 84 385 -1 128 -4 156 -27 233
-98 321 -350 555 -669 622 -85 18 -281 18 -363 0z" />
        <path d="M3610 1738 c-42 -12 -70 -35 -70 -58 0 -10 61 -123 135 -251 84 -145
135 -244 135 -261 0 -27 -2 -28 -55 -28 -50 0 -57 -3 -67 -25 -8 -18 -9 -35
-2 -53 9 -25 15 -27 67 -30 53 -3 57 -5 57 -27 0 -22 -5 -24 -52 -27 -45 -3
-55 -7 -67 -30 -12 -20 -13 -34 -5 -55 9 -26 14 -28 67 -31 l57 -3 0 -33 c0
-54 29 -81 88 -81 64 0 82 16 82 71 l0 44 55 0 c47 0 57 4 70 24 19 29 11 72
-15 86 -10 6 -40 10 -65 10 -42 0 -46 2 -43 23 3 19 10 23 62 27 53 4 60 8 68
31 5 15 5 37 -1 52 -9 23 -16 26 -68 29 -44 2 -59 7 -61 20 -2 9 61 127 138
262 105 181 140 251 135 266 -10 32 -70 57 -126 52 -10 -1 -45 -56 -89 -139
-40 -76 -89 -167 -108 -201 l-35 -64 -98 188 c-86 167 -126 226 -148 223 -3 0
-22 -5 -41 -11z" />
    </g>
</svg>